<?xml version="1.0" standalone="no"?><!DOCTYPE svg PUBLIC "-//W3C//DTD SVG 1.1//EN" "http://www.w3.org/Graphics/SVG/1.1/DTD/svg11.dtd"><svg t="1626271316330" class="icon" viewBox="0 0 1024 1024" version="1.1" xmlns="http://www.w3.org/2000/svg" p-id="3652" xmlns:xlink="http://www.w3.org/1999/xlink" width="200" height="200"><defs><style type="text/css"></style></defs><path d="M804.4544 904.1408H207.616c-22.5792 0-40.96-18.3808-40.96-40.96V160.6144c0-22.5792 18.3808-40.96 40.96-40.96h596.8384c22.5792 0 40.96 18.3808 40.96 40.96v702.5664c0 22.5792-18.3808 40.96-40.96 40.96zM207.616 160.6144v702.5664h596.8384V160.6144H207.616z" fill="#dbdbdb" p-id="3653"></path><path d="M628.3776 321.3824H312.0128c-11.3152 0-20.48-9.1648-20.48-20.48s9.1648-20.48 20.48-20.48h316.3648c11.3152 0 20.48 9.1648 20.48 20.48s-9.1648 20.48-20.48 20.48zM533.1968 478.8736h-221.184c-11.3152 0-20.48-9.1648-20.48-20.48s9.1648-20.48 20.48-20.48h221.184c11.3152 0 20.48 9.1648 20.48 20.48s-9.1648 20.48-20.48 20.48z" fill="#dbdbdb" p-id="3654"></path></svg>