<?xml version="1.0" standalone="no"?><!DOCTYPE svg PUBLIC "-//W3C//DTD SVG 1.1//EN" "http://www.w3.org/Graphics/SVG/1.1/DTD/svg11.dtd"><svg t="1626271286774" class="icon" viewBox="0 0 1024 1024" version="1.1" xmlns="http://www.w3.org/2000/svg" p-id="2692" xmlns:xlink="http://www.w3.org/1999/xlink" width="200" height="200"><defs><style type="text/css"></style></defs><path d="M688 384c-40.455 0-78.562 5.346-112 14.774V192c0-70.693-107.452-128-240-128S96 121.307 96 192v480c0 70.692 107.452 128 240 128 40.453 0 78.565-5.34 112-14.767V832c0 70.692 107.452 128 240 128s240-57.308 240-128V512c0-70.693-107.452-128-240-128z m176 128c0 35.346-78.798 64-176 64s-176-28.654-176-64c0-35.346 78.798-64 176-64s176 28.654 176 64zM336 128c97.202 0 176 28.654 176 64 0 35.346-78.798 64-176 64s-176-28.654-176-64c0-35.346 78.798-64 176-64zM160 279.011C203.832 304.218 266.456 320 336 320s132.168-15.782 176-40.989V352c0 35.346-78.798 64-176 64s-176-28.654-176-64v-72.989z m0 160C203.832 464.218 266.456 480 336 480c49.738 0 95.942-8.07 134.261-21.888C455.985 474.492 448 492.747 448 512v49.364C417.57 570.505 378.553 576 336 576c-97.202 0-176-28.654-176-64v-72.989zM336 736c-97.202 0-176-28.654-176-64v-72.989C203.832 624.218 266.456 640 336 640c40.453 0 78.565-5.34 112-14.767v96.132C417.57 730.505 378.553 736 336 736z m352 160c-97.202 0-176-28.654-176-64v-72.989C555.832 784.218 618.456 800 688 800s132.168-15.782 176-40.989V832c0 35.346-78.798 64-176 64z m0-160c-97.202 0-176-28.654-176-64v-72.989C555.832 624.218 618.456 640 688 640s132.168-15.782 176-40.989V672c0 35.346-78.798 64-176 64z" p-id="2693" fill="#dbdbdb"></path></svg>